<?xml version="1.0" encoding="UTF-8"?> <svg xmlns="http://www.w3.org/2000/svg" xmlns:xlink="http://www.w3.org/1999/xlink" width="297.73" height="235.77" viewBox="0 0 297.73 235.77"> <defs> <style>.cls-1{fill:#cccbcb;}.cls-2{fill:#9c9b9b;}.cls-3{fill:#636362;}.cls-4{fill:url(#Dégradé_sans_nom_6);}</style> <linearGradient id="Dégradé_sans_nom_6" x1="117.61" y1="96.94" x2="170.8" y2="96.94" gradientUnits="userSpaceOnUse"> <stop offset="0" stop-color="#e1272a"></stop> <stop offset="1" stop-color="#90120e"></stop> </linearGradient> </defs> <title>headerFichier 1</title> <g id="Calque_2" data-name="Calque 2"> <g id="Calque_1-2" data-name="Calque 1"> <path class="cls-1" d="M142.18,19.32A98.25,98.25,0,0,0,56.59,83.17L56,84.87h55V95.23l-58,0-.22,1a103,103,0,0,0-2.43,22.28,100.93,100.93,0,0,0,2.18,20.89l.2,1h58.25v10.34H56.14s.56,2,1.59,4.61c.6,1.53,1.79,3.79,1.79,3.79h85.2v10.34H64.21l1.23,1.94a98.12,98.12,0,0,0,65.95,44.22l1.49.27V186.83h-25.3l4.07,2.37a90.77,90.77,0,0,0,13,5.71v10.67A88.66,88.66,0,0,1,80.45,177.9h64.27v39.24l1.23,0c1,0,2,.05,3,.05s2,0,2.93-.05l1.23,0V177.9h64.36a88.32,88.32,0,0,1-44.07,27.7V194.89a90.58,90.58,0,0,0,13-5.69l4.34-2.37h-25.4V216l1.48-.27a96.68,96.68,0,0,0,52-27.15,99.4,99.4,0,0,0,13.69-17.08l1.2-1.94H153.13V159.17h86.23s.95-2.64,1.55-4.35a29.59,29.59,0,0,0,1.22-4H187.2V140.43h58.07l.21-1a101.87,101.87,0,0,0-.27-43.17l-.22-1-57.79,0V84.87H242l-.63-1.7A98.24,98.24,0,0,0,155.7,19.32h-1.57V39c-3.45-.14-6.92-.12-10.39.05V19.32ZM178.8,150.77H119.31V140.43H178.8Zm59.29-47.15a96.87,96.87,0,0,1,1.16,14.91,94.71,94.71,0,0,1-1,13.5H59.65a95.92,95.92,0,0,1,.2-28.41h84.92v10H69.09s-.17,1.9-.17,4.22.17,4.18.17,4.18H229s.17-2,.17-4.33-.17-4.07-.17-4.07H153.17v-10ZM119.31,95.23V84.87H178.8V95.23Zm34.82-47.91v18.8h56s-3.3-3.73-4.12-4.55A79.72,79.72,0,0,0,175,42.26l-1.67-.56v8.8l.82.31a69.65,69.65,0,0,1,13.81,6.91h-25.4V28.47a89,89,0,0,1,66.86,48H68.55a89,89,0,0,1,66.8-48V57.72H110a70.73,70.73,0,0,1,13.75-6.89l1.06-.47V41.72A80.11,80.11,0,0,0,92.29,61.49c-.81.83-1.59,1.67-2.36,2.51L88,66.11h55.73V47.41C147.21,47.22,150.7,47.18,154.13,47.32Z"></path> <path class="cls-1" d="M232.32,34.49A116.5,116.5,0,0,0,155.69.08L154.53,0V8.4l1,.07C214,11.81,258.05,59,258.05,118.27c0,61.17-47.91,109.1-109.08,109.1S39.89,179.44,39.89,118.27c0-59.22,44-106.42,102.44-109.8l1.2-.07V0l-1.34.08A116.54,116.54,0,0,0,65.62,34.49,118.23,118.23,0,0,0,31.5,118.27a117.48,117.48,0,1,0,235,0A118.24,118.24,0,0,0,232.32,34.49Z"></path> <rect class="cls-2" x="1.67" y="150.17" width="294.49" height="1.71"></rect> <path class="cls-3" d="M41.4,89.3l2.75-5.68h2.5l1,23.62H45q-2.61-10-6.58-14.69c-3.29-4-7.2-5.91-11.76-5.91q-7.38,0-12,6.59T10,115.54q0,13.21,5.31,20.16,4.53,5.88,12.71,5.88A16.81,16.81,0,0,0,40,137q4.84-4.59,6.32-13.83h2.81Q47.92,133.63,42,139.28a21,21,0,0,1-15,5.63,25.66,25.66,0,0,1-13.48-3.69A26.58,26.58,0,0,1,3.67,130.6,31.86,31.86,0,0,1,0,115.42,36.91,36.91,0,0,1,3.79,98.94,28.26,28.26,0,0,1,13.5,87.37,22.84,22.84,0,0,1,26.25,83.5a21.34,21.34,0,0,1,7.38,1.31A30.73,30.73,0,0,1,41.4,89.3Z"></path> <path class="cls-3" d="M55.15,84.73H85.48q8.82,0,13.67,4A13,13,0,0,1,104,99.26a12.66,12.66,0,0,1-1.92,6.92A13.47,13.47,0,0,1,96.53,111q-3.63,1.81-11.41,2.6c3.77,1,6.38,2.05,7.8,3a11.08,11.08,0,0,1,3.43,3.85c.85,1.58,1.85,4.78,3,9.62.8,3.48,1.65,5.84,2.56,7.11a2.83,2.83,0,0,0,2.22,1.47c.82,0,1.58-.6,2.28-1.81s1.13-3.33,1.29-6.37h2.7q-.75,13.5-10,13.5a8.57,8.57,0,0,1-5-1.47,8.92,8.92,0,0,1-3.2-4.32q-.84-2.16-1.87-11.24-.58-5.28-1.88-7.5a9.14,9.14,0,0,0-4-3.58,14.62,14.62,0,0,0-6.54-1.34H73.05v23.06a2.49,2.49,0,0,0,.76,2.06,4.76,4.76,0,0,0,3,.76h5.65v3H55.15v-3h5.76a4.27,4.27,0,0,0,2.79-.76,2.53,2.53,0,0,0,.9-2.06V90.72a2.79,2.79,0,0,0-.91-2.26,4.35,4.35,0,0,0-2.78-.75H55.15Zm17.9,27h7q7,0,10.93-2.64c2.65-1.76,4-4.89,4-9.37a15.3,15.3,0,0,0-1.49-7.34,7.92,7.92,0,0,0-3.91-3.68c-1.62-.67-4.79-1-9.52-1-3.13,0-5.07.21-5.8.65a2.39,2.39,0,0,0-1.12,2.24Z"></path> <path class="cls-3" d="M178.39,84.73h30.34a25.28,25.28,0,0,1,11.46,2.38,24.87,24.87,0,0,1,10,10,32.33,32.33,0,0,1,4.12,16.63,39,39,0,0,1-2.47,14.29,22.67,22.67,0,0,1-5.74,8.53,24.78,24.78,0,0,1-9.42,5.49,37.6,37.6,0,0,1-11.12,1.34H178.39v-3H184a4.63,4.63,0,0,0,2.92-.68,2.62,2.62,0,0,0,.82-2.11V90.41a2.45,2.45,0,0,0-.88-2,3.64,3.64,0,0,0-2.42-.73h-6Zm21.29,3a4,4,0,0,0-2.66.75,2.88,2.88,0,0,0-.83,2.26v46.85a2.51,2.51,0,0,0,1,2.16,5.83,5.83,0,0,0,3.37.74h5A20.31,20.31,0,0,0,217.3,137a14.28,14.28,0,0,0,5-6.47c1.55-3.75,2.34-8.95,2.34-15.56q0-14.69-5.12-21.52c-2.93-3.83-7.31-5.75-13.19-5.75Z"></path> <path class="cls-3" d="M270,83.5a26.59,26.59,0,0,1,13.92,3.91,27.13,27.13,0,0,1,10.16,10.92A35.8,35.8,0,0,1,294,130a27.64,27.64,0,0,1-10.14,11,25.81,25.81,0,0,1-13.68,3.94A24.73,24.73,0,0,1,257,141.05,28.1,28.1,0,0,1,247,130a34.1,34.1,0,0,1-3.74-16,33.15,33.15,0,0,1,3.63-15.62,27.71,27.71,0,0,1,9.93-10.92A24.41,24.41,0,0,1,270,83.5Zm.64,3A15,15,0,0,0,258.07,93q-4.8,6.44-4.81,21c0,10.51,1.66,17.77,4.92,21.8A15.6,15.6,0,0,0,279.31,139q3.84-2.74,6.13-8.7t2.29-15.64q0-10.56-2.14-16.49a18,18,0,0,0-6.12-8.8A14.8,14.8,0,0,0,270.62,86.55Z"></path> <path class="cls-4" d="M168.1,127c-5.13,9.25-12,13.94-20.35,13.94a18.46,18.46,0,0,1-14.48-6.55c-3.29-3.85-5.06-10.46-5.27-19.67l0-.79h42.59a41.4,41.4,0,0,0-2.28-13.67,26.26,26.26,0,0,0-9.17-12.41,24.58,24.58,0,0,0-14.48-4.3,25,25,0,0,0-19.2,8.66c-5.18,5.78-7.83,13.47-7.83,22.87,0,8.73,2.68,16,8,21.58A26,26,0,0,0,145.09,145c11.07,0,19.72-5.66,25.71-16.86ZM128,110.14c.13-8,1.79-14.12,4.95-18.18s7.19-6.2,11.82-6.2a14.14,14.14,0,0,1,10.84,5.15,18.08,18.08,0,0,1,4.54,12.38c0,2.71-.47,4.61-1.44,5.8a5.09,5.09,0,0,1-4.16,1.84H128Zm28.62-51c2.78-2.07,4.2-4.06,4.2-5.91a4.1,4.1,0,0,0-1.35-3,4.35,4.35,0,0,0-3.14-1.33,5.19,5.19,0,0,0-3.18,1.23c-1.14.89-3.19,3.48-6.09,7.71l-10.49,15,.65.65Z"></path> </g> </g> </svg> 